<svg xmlns="http://www.w3.org/2000/svg" viewBox="0 0 925 988" width="925" height="988">
	<style>
		tspan { white-space:pre }
		.shp0 { fill: #ffffff } 
	</style>
	<g id="Layer">
		<path id="Layer" class="shp0" d="M924.81 4.94C835.53 13.85 811.15 101.89 606.53 23.33C476.87 -26.45 397.87 16.75 362.53 30.95C344.01 38.39 326.65 49.22 312.07 63.33C276.59 97.66 268.15 150.61 283.18 200.34L283.16 200.34C291.02 226.99 284.91 258.87 264.13 284.84C240.79 314.01 205.38 327.71 173.9 322.9C164.33 320.98 154.41 319.97 144.22 319.97C64.97 319.96 0 381.05 0 457.75C0 493.83 14.22 526.69 37.54 551.39C54.99 570.9 65.89 598.51 65.89 629.13C65.89 654.76 58.25 678.28 45.53 696.71C25.39 720.8 13.44 750.76 13.44 783.25C13.44 862.72 84.92 927.14 173.08 927.14C202.43 927.14 229.91 920 253.54 907.55C291.81 889.53 340.04 878.78 392.47 878.78C472.33 878.78 542.46 903.7 582.44 941.28L582.45 941.27C614.18 969.81 657.4 987.38 705.03 987.38C770.07 987.38 826.88 954.64 857.45 905.93C866.59 893.45 893.66 861.33 924.81 870.24L924.81 4.94L924.81 4.94Z" />
	</g>
</svg>